<svg width="100" height="100" id="Layer_1" xmlns="http://www.w3.org/2000/svg" viewBox="15.6 37.6 80 50">
    <style>
        .st0
        <!-- -->
        {
        <!-- -->
        fill:#ccc
        <!-- -->
        }
    </style>
    <path class="st0" d="M85.6 52.8s-5.1-7-13.2-6.6c-8.3-11.4-14.7-1.4-14.7-1.4-.6-.4-1.4-.6-2.2-.6-.8 0-1.5.2-2.2.6 0 0-6.4-10-14.7 1.4-8.1-.4-13.2 6.6-13.2 6.6-4.9 3-8.2 8.4-8.2 14.5 0 9.4 7.6 17 17 17 8.5 0 15.6-6.3 16.8-14.5 0 0 1.3 1.7 4.1 1.7s4.6-1.7 4.6-1.7C60.9 78 68 84.2 76.5 84.2c9.4 0 17-7.6 17-17 .3-6-3-11.4-7.9-14.4zM33.9 79.5c-6.4 0-11.6-5.2-11.6-11.6 0-6.4 5.2-11.6 11.6-11.6s11.6 5.2 11.6 11.6c.1 6.4-5.2 11.6-11.6 11.6zm42.9 0c-6.4 0-11.7-5.2-11.7-11.6 0-6.4 5.2-11.6 11.7-11.6 6.4 0 11.6 5.2 11.6 11.6 0 6.4-5.2 11.6-11.6 11.6z"></path>
    <path class="st0" d="M26.9 66.9c-.4-1-.6-2-.7-3-1.2 2.1-1.5 4.7-.6 7.1 1.6 4.3 6.5 6.5 10.8 4.9.9-.3 1.7-.8 2.4-1.4-5 .4-10-2.5-11.9-7.6zM70.7 66.9c-.4-1-.6-2-.7-3-1.2 2.1-1.5 4.7-.6 7.1 1.6 4.3 6.5 6.5 10.8 4.9.9-.3 1.7-.8 2.4-1.4-5 .4-10-2.5-11.9-7.6z"></path>
</svg>